<?xml version="1.0" encoding="UTF-8"?>
<svg id="Capa_3" data-name="Capa 3" xmlns="http://www.w3.org/2000/svg" version="1.1" viewBox="0 0 50 50">
  <defs>
    <style>
      .cls-1 {
        fill: #fff;
        stroke-width: 0px;
      }
    </style>
  </defs>
  <path className="cls-1" d="M16.8,36.5c-1.1,0-1.9-.6-2.3-1.8-.3-1-.3-2-.3-3.1,0-4.5.5-3.9-4-4h-1.3c-2.3,0-3.5-.9-3.5-2.6s1.2-2.6,3.4-2.6h3.6c1.3,0,1.9-.4,1.8-1.8v-4.1c.1-2,1.1-3.1,2.7-3,1.5,0,2.5,1.2,2.5,3.2v4.4c0,.9.4,1.3,1.3,1.3h3.9c2.4,0,3.8,1,3.8,2.6s-1.4,2.5-3.7,2.6h-3.9c-1,0-1.4.4-1.4,1.4v4.9c0,1.6-1.1,2.6-2.7,2.6h.1Z"/>
  <path className="cls-1" d="M39.6,25c0-10.5-7.7-18.9-18.1-20-.7,0-1.3,0-2-.2-1.7-.2-2.6-1.1-2.5-2.5,0-1.4,1-2.3,2.7-2.3s4.2.3,6.2.8c10.9,2.9,18.7,13,18.7,24.2s-9.3,22.9-21.5,24.7c-1.1.2-2.2.3-3.4.3-1.7,0-2.8-.9-2.8-2.3s1-2.5,2.8-2.5,4.6-.5,6.7-1.3c7.9-2.9,13.1-10.4,13.1-18.9h0Z"/>
</svg>
