<?xml version="1.0" encoding="UTF-8"?>
<svg id="Capa_1" data-name="Capa 1" xmlns="http://www.w3.org/2000/svg" viewBox="0 0 132.13 132.13">
  <g id="_7y4Fkk.tif" data-name="7y4Fkk.tif">
    <g>
      <path d="M65.99,46.08c15.56,0,31.12,0,46.68,0,2.67,0,2.76.09,2.76,2.76,0,18.6.01,37.2,0,55.8,0,7.25-4.62,11.84-11.85,11.85-25.03,0-50.07,0-75.1,0-7.31,0-11.8-4.49-11.8-11.83-.01-18.66,0-37.32,0-55.98,0-2.6,0-2.6,2.65-2.6,15.56,0,31.12,0,46.68,0ZM65.87,73.9s0,.01,0,.02c1.23,0,2.45.03,3.68,0,2.2-.07,3.17-1.01,3.24-3.25.07-2.16.05-4.32.01-6.48-.04-2.11-.93-3.34-3.04-3.65-2.65-.38-5.35-.42-8.01.09-1.53.29-2.39,1.32-2.44,2.8-.1,2.62-.1,5.26,0,7.88.06,1.6.98,2.59,2.7,2.61,1.28.01,2.57,0,3.85,0ZM59.28,95.37s-.01,0-.02,0c0,1.11-.03,2.22,0,3.33.07,2.19,1.14,3.39,3.33,3.49,2.28.1,4.57.1,6.84,0,2.12-.1,3.26-1.25,3.34-3.32.09-2.34.08-4.68,0-7.02-.06-1.89-1.21-3.07-3.1-3.14-2.45-.09-4.91-.09-7.37,0-1.84.06-2.91,1.15-3.02,2.99-.08,1.22-.01,2.46-.01,3.68ZM37.92,88.67s0,0,0,0c-1.05,0-2.11-.02-3.16,0-2.44.06-3.53,1.09-3.61,3.54-.07,2.1-.07,4.21,0,6.32.09,2.53,1.19,3.62,3.71,3.7,2.05.07,4.1.06,6.14,0,2.43-.07,3.46-.95,3.63-3.36.16-2.33.16-4.68,0-7.01-.15-2.29-1.11-3.08-3.38-3.18-1.11-.05-2.22,0-3.33,0ZM94.09,88.67h0c-1.05,0-2.11-.03-3.16,0-2.44.06-3.53,1.09-3.61,3.54-.07,2.1-.07,4.21,0,6.32.09,2.53,1.19,3.62,3.71,3.7,2.05.07,4.1.06,6.14,0,2.43-.07,3.46-.95,3.63-3.36.16-2.33.16-4.68,0-7.01-.15-2.29-1.11-3.08-3.38-3.18-1.11-.05-2.22,0-3.33,0ZM37.91,73.91s0,0,0,0c1.17,0,2.34.03,3.51,0,2.21-.07,2.94-.66,3.18-2.88.27-2.44.24-4.91.03-7.35-.18-2.11-1.33-3.16-3.61-3.3-2.04-.12-4.09-.12-6.13,0-2.16.13-3.57,1.28-3.66,3.09-.13,2.56-.14,5.14.02,7.7.12,1.91,1.06,2.64,2.99,2.73,1.22.05,2.45,0,3.68,0ZM94.18,73.91s0,.01,0,.02c1.11,0,2.22.03,3.33,0,2.28-.06,2.98-.6,3.24-2.81.29-2.5.22-5.02.04-7.52-.13-1.83-1.25-2.89-3.02-3.11-2.38-.3-4.79-.29-7.17-.02-1.67.19-3.07,1.08-3.22,2.95-.22,2.62-.23,5.26.02,7.88.16,1.68,1.16,2.63,2.92,2.63,1.29,0,2.57,0,3.86,0Z" fill="#fff"/>
      <path d="M65.68,39.51c-15.32,0-30.65,0-45.97,0q-3.05,0-3.06-2.97c0-2.11,0-4.21,0-6.32,0-7.83,4.37-12.29,12.24-12.45,2.28-.05,4.57-.08,6.84.01,1.57.07,2.04-.56,1.99-2.06-.08-2.1-.1-4.19.33-6.29.65-3.19,3.28-5.4,6.78-5.52,3.22-.1,6.08,2.09,6.91,5.12.63,2.31.5,4.64.48,6.97-.01,1.28.46,1.77,1.75,1.76,8.07-.03,16.14-.03,24.21,0,1.34,0,1.68-.59,1.68-1.82.01-2.27-.25-4.56.35-6.81.85-3.2,3.71-5.34,7.03-5.22,3.64.14,6.24,2.43,6.8,5.91.3,1.86.27,3.73.28,5.6.01,2.28.06,2.27,2.4,2.34,3.2.09,6.39-.11,9.61.42,5.42.88,8.61,5.22,9.02,10.38.24,3.02.04,6.08.07,9.12.01,1.16-.52,1.74-1.66,1.78-.64.02-1.29.03-1.93.03-15.38,0-30.76,0-46.15,0Z" fill="#fff"/>
    </g>
  </g>
</svg>