<?xml version="1.0" encoding="UTF-8"?>
<svg id="Capa_3" data-name="Capa 3" xmlns="http://www.w3.org/2000/svg" version="1.1" viewBox="0 0 50 50">
  <defs>
    <style>
      .cls-1 {
        fill: #e3bf91;
      }

      .cls-1, .cls-2 {
        stroke-width: 0px;
      }

      .cls-2 {
        fill: #f7ece2;
      }
    </style>
  </defs>
  <path className="cls-1" d="M24.7,46.5c-11.7-.3-21.3-9.8-21.2-21.6,0-8.5,5.1-15.4,11.7-18.9l-1.6-3.2C5.6,7,0,15.3,0,25c0,13.9,11.3,25,25.2,25,4.1,0,7.9-1,11.3-2.8l-1.6-3.2c-3.1,1.6-6.5,2.5-10.1,2.4Z"/>
  <path className="cls-2" d="M50,25C50,11.1,38.9,0,25.1,0c-4.1,0-8.1,1-11.5,2.8l1.6,3.2c3.1-1.7,6.6-2.6,10.2-2.6,11.2.1,21.7,10.2,21.1,21.7.4,7.7-4.5,15.2-11.6,18.9l1.6,3.2c8-4.1,13.5-12.5,13.5-22.3Z"/>
  <path className="cls-2" d="M30.7,35.3c.7.7,1.6,1.3,2.5,1.3,1.6,0,2.5-.6,3.2-1.8.7-1.3.4-2.5-.5-3.4-1.6-1.7-3.2-3.4-4.9-5-1-.9-1.1-1.6,0-2.6,1.7-1.5,3.2-3.1,4.7-4.8,1.8-2,1.1-4.7-1.4-5.5-1.4-.5-2.5.3-3.5,1.2-1.6,1.5-3.1,3-4.6,4.6-.8.8-1.4.9-2.2,0-1.1-1.2-2.3-2.4-3.5-3.6l9.7,18.9c.2.2.4.4.6.6Z"/>
  <path className="cls-1" d="M20.4,15.8c-.4-.4-.8-.8-1.2-1.2-1.7-1.5-3.4-1.6-4.8-.3-1.5,1.4-1.4,3.1.2,4.9,1.4,1.5,2.8,3,4.4,4.4,1.3,1.1,1.1,1.9,0,2.9-1.6,1.5-3.2,3-4.6,4.6-1.5,1.7-1.3,3.8.5,4.9,1.3.8,3,.6,4.3-.6,1.5-1.4,2.9-2.8,4.3-4.3q1.6-1.6,3.1,0c1.2,1.2,2.3,2.3,3.5,3.5l-9.7-18.9Z"/>
</svg>