<?xml version="1.0" encoding="UTF-8"?>
<svg id="Capa_1" data-name="Capa 1" xmlns="http://www.w3.org/2000/svg" viewBox="0 0 50 50">
  <defs>
    <style>
      .cls-1 {
        fill: none;
      }

      .cls-1, .cls-2, .cls-3 {
        stroke-width: 0px;
      }

      .cls-2 {
        fill: #c19352;
      }

      .cls-3 {
        fill: #005e50;
      }
    </style>
  </defs>
  <path class="cls-1" d="M21.16,24.37c-.11-.21-.27-.46-.48-.79l.48.79Z"/>
  <path class="cls-2" d="M20.25,27.14c-2.45,4.07-4.96,8.1-7.38,12.19-1.35,2.29-1.44,4.75-.24,7.16,1.15,2.32,3,3.44,5.35,3.51,2.23.04,4-1,5.37-2.9,2.1-2.92,4.19-5.84,6.28-8.76l-8.48-13.96c.47.86.16,1-.9,2.78Z"/>
  <path class="cls-3" d="M37.3,22.45c-.86-1.25-1.76-2.47-2.64-3.7-3.77-5.26-7.5-10.56-11.31-15.78-2.38-3.27-6.32-3.89-9.09-1.55-2.67,2.25-3.16,6.11-1.24,9.59l7.64,12.59c.2.33.36.58.48.79l8.48,13.96c2.56-3.57,5.11-7.15,7.66-10.73,1.23-1.72,1.2-3.41.01-5.15Z"/>
</svg>