<?xml version="1.0" encoding="UTF-8"?>
<svg id="Capa_1" data-name="Capa 1" xmlns="http://www.w3.org/2000/svg" version="1.1" viewBox="0 0 50 50">
  <defs>
    <style>
      .cls-1 {
        fill: #eaeaea;
      }

      .cls-1, .cls-2 {
        stroke-width: 0px;
      }

      .cls-2 {
        fill: #fff;
      }
    </style>
  </defs>
  <path class="cls-2" d="M21.3,24.4c-.1-.2-.3-.5-.5-.8l.5.8Z"/>
  <path class="cls-2" d="M20.4,27.1c-2.4,4.1-4.8,8.1-7.1,12.2-1.3,2.3-1.4,4.8-.2,7.2,1.1,2.3,2.9,3.4,5.1,3.5,2.1,0,3.8-1,5.1-2.9,2-2.9,4-5.8,6-8.8l-8.1-14c.5.9.2,1-.9,2.8h0Z"/>
  <path class="cls-1" d="M36.8,22.5c-.8-1.2-1.7-2.5-2.5-3.7-3.6-5.3-7.2-10.6-10.9-15.8-2.3-3.3-6.1-3.9-8.7-1.5-2.6,2.2-3,6.1-1.2,9.6l7.3,12.6c.2.3.4.6.5.8l8.1,14c2.5-3.6,4.9-7.1,7.3-10.7,1.2-1.7,1.2-3.4,0-5.1h0Z"/>
</svg>