<?xml version="1.0" encoding="UTF-8"?>
<svg id="Capa_1" data-name="Capa 1" xmlns="http://www.w3.org/2000/svg" version="1.1" viewBox="0 0 50 50">
  <defs>
    <style>
      .cls-1 {
        fill: none;
      }

      .cls-1, .cls-2, .cls-3 {
        stroke-width: 0px;
      }

      .cls-2 {
        fill: #dbc7a1;
      }

      .cls-3 {
        fill: #fff;
      }
    </style>
  </defs>
  <path class="cls-1" d="M21.2,24.4c-.1-.2-.3-.5-.5-.8l.5.8Z"/>
  <path class="cls-3" d="M20.2,27.1c-2.5,4.1-5,8.1-7.4,12.2-1.4,2.3-1.4,4.8-.2,7.2,1.1,2.3,3,3.4,5.3,3.5,2.2,0,4-1,5.4-2.9,2.1-2.9,4.2-5.8,6.3-8.8l-8.5-14c.5.9.2,1-.9,2.8h0Z"/>
  <path class="cls-2" d="M37.3,22.5c-.9-1.2-1.8-2.5-2.6-3.7-3.8-5.3-7.5-10.6-11.3-15.8-2.4-3.3-6.3-3.9-9.1-1.5-2.7,2.2-3.2,6.1-1.2,9.6l7.6,12.6c.2.3.4.6.5.8l8.5,14c2.6-3.6,5.1-7.1,7.7-10.7,1.2-1.7,1.2-3.4,0-5.1h0Z"/>
</svg>