<?xml version="1.0" encoding="UTF-8"?>
<svg id="Capa_1" data-name="Capa 1" xmlns="http://www.w3.org/2000/svg" viewBox="0 0 50 50">
  <defs>
    <style>
      .cls-1 {
        fill: #ba945c;
        stroke-width: 0px;
      }
    </style>
  </defs>
  <path className="cls-1" d="M24.97,50C11.52,50.1,0,38.88,0,25.02,0,11.01,11.63-.02,25.03,0c13.46.02,25,11.16,24.97,25.09-.04,13.74-11.44,25.03-25.03,24.91ZM45.52,25.13c-.21-11.06-8.34-20.5-20.44-20.59-11.52-.08-20.46,8.79-20.54,20.42-.08,11.47,9,20.62,20.36,20.5,12.02-.12,20.22-9.04,20.62-20.34Z"/>
  <path className="cls-1" d="M28.16,20.35c0,1.32,0,2.65,0,3.97,0,1.43-.59,2.56-1.8,3.34-2.01,1.28-4.02,2.57-6.06,3.81-1.61.98-3.48.55-4.44-.96-.97-1.51-.57-3.34,1.03-4.41,1.4-.94,2.84-1.82,4.29-2.68.49-.29.67-.64.66-1.19-.03-1.95-.02-3.89,0-5.84,0-1.95,1.31-3.3,3.16-3.31,1.85,0,3.15,1.35,3.16,3.3,0,1.32,0,2.65,0,3.97Z"/>
</svg>