<?xml version="1.0" encoding="UTF-8"?>
<svg id="Capa_3" data-name="Capa 3" xmlns="http://www.w3.org/2000/svg" viewBox="0 0 50 50">
  <defs>
    <style>
      .cls-1 {
        fill: #bb965c;
        stroke-width: 0px;
      }
    </style>
  </defs>
  <path class="cls-1" d="m25.01,50c-5.11,0-10.22,0-15.32,0-3.89,0-6.56-2.67-6.57-6.58-.02-6.02-.01-12.04,0-18.06,0-3.96,2.69-6.58,6.68-6.62,2.85-.02,2.58.39,2.6-2.6.02-2.73-.18-5.48.86-8.11C15.34,2.7,20.83-.64,26.32.1c6.24.84,10.45,5.07,11.1,11.13.22,2.03.13,4.07.1,6.1-.01,1.1.38,1.49,1.46,1.42.86-.06,1.76-.06,2.61.08,2.98.49,5.22,3.03,5.24,6.1.05,6.31.07,12.62,0,18.93-.04,3.52-2.84,6.12-6.38,6.13-5.15.01-10.3,0-15.45,0m-.03-4.84c4.94,0,9.88,0,14.81,0,1.81,0,2.19-.38,2.2-2.19,0-5.73,0-11.45,0-17.18,0-1.8-.4-2.21-2.19-2.21-9.88,0-19.75,0-29.63,0-1.78,0-2.21.44-2.21,2.21,0,5.73,0,11.45,0,17.18,0,1.79.41,2.19,2.21,2.19,4.94,0,9.88,0,14.81,0m.01-26.43c2.12,0,4.23-.03,6.35.01.9.02,1.29-.28,1.26-1.21-.04-1.78.02-3.57-.03-5.35-.11-4.19-3.36-7.27-7.6-7.27-4.2,0-7.42,3.03-7.57,7.16-.07,1.78.02,3.57-.05,5.35-.04,1.07.42,1.35,1.41,1.33,2.07-.05,4.15-.02,6.22-.02"/>
  <path class="cls-1" d="m27.4,34.47c0,.95.05,1.91,0,2.86-.1,1.6-.96,2.46-2.39,2.47-1.5.01-2.38-.85-2.43-2.54-.06-1.95-.06-3.9,0-5.85.05-1.61.93-2.46,2.37-2.48,1.43-.01,2.3.84,2.45,2.42.01.12.02.25.02.37,0,.91,0,1.83,0,2.74h-.02Z"/>
</svg>