<?xml version="1.0" encoding="UTF-8"?>
<svg id="Capa_3" data-name="Capa 3" xmlns="http://www.w3.org/2000/svg" viewBox="0 0 50 50">
  <defs>
    <style>
      .cls-1 {
        fill: #fff;
        stroke-width: 0px;
      }
    </style>
  </defs>
  <path class="cls-1" d="m45.01,24.99c0-10.47-7.64-18.94-17.98-19.96-.66-.07-1.32-.12-1.98-.2-1.67-.2-2.58-1.11-2.51-2.52C22.6.9,23.61,0,25.26,0c2.08,0,4.14.29,6.16.82,10.82,2.87,18.59,12.99,18.59,24.2,0,12.25-9.19,22.92-21.3,24.72-1.11.17-2.22.28-3.35.25-1.72-.03-2.77-.89-2.82-2.33-.05-1.48,1.01-2.45,2.8-2.5,2.3-.07,4.54-.49,6.7-1.28,7.84-2.89,12.99-10.39,12.99-18.89Z"/>
  <path class="cls-1" d="m28.97,26.9h-1.2c-4.64,0-9.29,0-13.93,0-.4,0-.8.01-1.19-.05-.91-.15-1.52-.86-1.56-1.8-.05-.91.5-1.69,1.42-1.9.41-.1.85-.09,1.28-.09,4.64,0,9.29,0,13.93,0,.39,0,.79.1,1.1-.09-1.09-1.16-2.16-2.34-3.28-3.48-.98-.99-2.03-1.9-3.02-2.88-1.07-1.06-1.16-1.98-.34-2.87.83-.9,1.92-.88,2.98.12,2.78,2.61,5.54,5.23,8.32,7.85.53.5,1.09.97,1.61,1.48,1.29,1.25,1.33,2.2.07,3.49-1.04,1.06-2.16,2.05-3.25,3.08-2.22,2.09-4.43,4.19-6.66,6.27-.72.67-1.53,1.11-2.52.58-1.32-.7-1.44-2.19-.25-3.32,1.87-1.78,3.77-3.54,5.65-5.32.28-.27.64-.48.84-1.06"/>
</svg>
