<?xml version="1.0" encoding="UTF-8"?>
<svg id="Capa_1" data-name="Capa 1" xmlns="http://www.w3.org/2000/svg" viewBox="0 0 50 50">
  <defs>
    <style>
      .cls-1 {
        fill: #dbc7a1;
        stroke-width: 0px;
      }
    </style>
  </defs>
  <path className="cls-1" d="M28.87,41.07c0-2.62.02-5.24-.02-7.86-.01-.72.25-.89.9-.88,1.35.03,2.7-.01,4.04.02.57.01.86-.2.94-.77.26-1.82.53-3.64.81-5.45.09-.57-.16-.74-.69-.73-1.66.01-3.32,0-4.98,0-.95,0-1.02-.08-1.02-1.02,0-1.27,0-2.54,0-3.81.02-2.37,1.33-3.77,3.71-3.9.9-.05,1.81-.03,2.72-.02.53.01.74-.2.73-.74-.02-1.5-.01-3.01,0-4.51,0-.41-.09-.71-.56-.77-2.55-.32-5.1-.61-7.65-.05-3.74.83-6.16,3.72-6.5,7.57-.18,2.07-.09,4.14-.13,6.22-.02.95-.08,1.03-1.01,1.04-1.48,0-2.96.02-4.43,0-.62-.01-.81.22-.8.82.03,1.79.03,3.58,0,5.37,0,.57.2.78.77.77,1.53-.02,3.06.01,4.59-.02.65-.01.91.17.9.88-.03,5.18-.02,10.37-.02,15.55,0,1.06-.03,1.11-1.05.91-4.13-.79-7.84-2.52-11.06-5.22-3.31-2.78-5.8-6.2-7.38-10.24C.19,30.38-.29,26.35.16,22.3c.61-5.4,2.85-10.13,6.59-14.12,2.36-2.52,5.1-4.49,8.25-5.86,2.56-1.11,5.25-1.75,8.03-2,4.7-.43,9.15.53,13.3,2.66,6.18,3.17,10.37,8.13,12.42,14.76,2.36,7.63,1.38,14.85-3.13,21.51-3.69,5.45-8.81,8.82-15.18,10.33-1.58.38-1.58.37-1.58-1.28,0-2.41,0-4.82,0-7.23Z"/>
</svg>