<?xml version="1.0" encoding="UTF-8"?>
<svg id="Capa_1" data-name="Capa 1" xmlns="http://www.w3.org/2000/svg" viewBox="0 0 132.13 132.13">
  <g id="Ea8GHw.tif">
    <g>
      <path d="M92.02,43.93c8.34,17.52-3.19,25.96-5.37,42.08-.37,2.71.88,7.39-3.06,7.8l-36.04-.19c-2.67-.87-1.76-5.88-2.04-8.02-1.94-14.92-12.07-21.68-6.8-38.28,4.07-12.81,17.46-20.74,30.68-19.38,9.42.97,18.6,7.48,22.65,15.98ZM79.75,87.37c.23-3.63.91-7.28,1.9-10.77,2.91-10.22,9.3-15.48,5.35-27.26-6.22-18.58-32.84-19.81-41-1.94-5.75,12.58,1.46,18.44,4.57,29.51.95,3.4,1.65,6.92,1.81,10.46h27.37Z" fill="#fff"/>
      <path d="M78.75,125.99c-6.55,8.19-18.81,8.19-25.36,0-2.11-2.64-6.07-12.09-1.12-13.19h27.59c4.97,1.11.96,10.59-1.12,13.19ZM74.52,119.55h-16.9c2.49,7.7,14.39,7.72,16.9,0Z" fill="#fff"/>
      <path d="M83.48,99.94c-10.78.7-23.56-1.27-34.11-.1-4.83.54-4.79,6.33-.41,6.85l34.59-.03c3.94-.85,3.81-6.03-.07-6.72Z" fill="#fff"/>
      <path d="M103.61,76.59c-3.23-.73-5.68,1.84-4.09,4.89.31.6,8.05,8.33,8.65,8.65,3.44,1.79,6.22-1.64,4.53-4.93-.36-.7-6.69-7.04-7.59-7.7-.5-.37-.83-.76-1.5-.91Z" fill="#fff"/>
      <path d="M32.14,77.44c-.94-1.03-2.64-1.15-3.92-.75-.69.22-8.36,7.71-8.78,8.52-1.91,3.7,1.68,7.02,5.19,4.38.97-.73,7.58-7.33,7.99-8.1.69-1.31.53-2.95-.48-4.05Z" fill="#fff"/>
      <path d="M106.8,20.66c-1.24-.16-2.14.45-3.11,1.14-1.05.75-6.57,6.25-7.23,7.26-2.37,3.63,1.08,7.19,4.59,4.99.69-.43,7.67-7.36,8.08-8.01,1.31-2.11.21-5.05-2.33-5.37Z" fill="#fff"/>
      <path d="M26.33,20.66c-2.86-.47-4.81,2.71-3.49,5.13.32.59,7.55,7.83,8.24,8.26,3.42,2.15,6.84-1.26,4.75-4.75-.66-1.11-5.99-6.39-7.17-7.31-.6-.47-1.59-1.21-2.32-1.33Z" fill="#fff"/>
      <path d="M116.08,52.46c-1.49-.33-11.21-.33-12.7,0-3.16.71-3.14,5.78.34,6.33,1.82.28,10.7.31,12.36-.06,2.89-.65,2.91-5.62,0-6.26Z" fill="#fff"/>
      <path d="M28.76,52.46c-1.5-.33-11.21-.33-12.7,0-2.95.66-2.98,5.8.34,6.32,1.8.29,10.71.31,12.36-.06,3.08-.69,3.09-5.58,0-6.26Z" fill="#fff"/>
      <path d="M67.4.16c-1.73-.52-4.17.19-4.54,2.14-.28,1.45-.28,11,0,12.45.58,3.03,5.84,3.04,6.42,0,.28-1.45.28-11,0-12.45-.13-.69-1.22-1.94-1.88-2.14Z" fill="#fff"/>
      <path d="M73.02,40.8c-2.53-.44-5.98-.36-6.12,2.96-.17,4.35,4.71,2.89,6.83,4.77,2.46,2.18.67,6.71,4.61,7.07,5.29.49,4.09-5.72,2.44-8.89-1.38-2.65-4.77-5.4-7.76-5.92Z" fill="#fff"/>
    </g>
  </g>
</svg>