<?xml version="1.0" encoding="UTF-8"?>
<svg xmlns="http://www.w3.org/2000/svg" version="1.1" viewBox="0 0 50 50">
  <defs>
    <style>
      .cls-1 {
        fill: #c19352;
      }
    </style>
  </defs>
  <!-- Generator: Adobe Illustrator 28.6.0, SVG Export Plug-In . SVG Version: 1.2.0 Build 709)  -->
  <g>
    <g id="Capa_1">
      <path class="cls-1" d="M6.25,10.94c-.86,0-1.56.7-1.56,1.56v2.16l16.85,13.83c2.02,1.66,4.92,1.66,6.94,0l16.84-13.83v-2.16c0-.86-.7-1.56-1.56-1.56H6.25ZM4.69,20.72v16.78c0,.86.7,1.56,1.56,1.56h37.5c.86,0,1.56-.7,1.56-1.56v-16.78l-13.87,11.39c-3.75,3.08-9.15,3.08-12.89,0l-13.87-11.39ZM0,12.5c0-3.45,2.8-6.25,6.25-6.25h37.5c3.45,0,6.25,2.8,6.25,6.25v25c0,3.45-2.8,6.25-6.25,6.25H6.25c-3.45,0-6.25-2.8-6.25-6.25V12.5Z"/>
    </g>
  </g>
</svg>