<?xml version="1.0" encoding="UTF-8"?><svg id="Capa_1" xmlns="http://www.w3.org/2000/svg" width="50" height="50" viewBox="0 0 50 50"><path d="M25,14.86c-5.6,0-10.14,4.54-10.14,10.14,0,5.6,4.54,10.14,10.14,10.14,5.6,0,10.14-4.54,10.14-10.14,0-5.6-4.54-10.14-10.14-10.14M17.98,25c0-3.88,3.14-7.02,7.02-7.02,3.88,0,7.02,3.14,7.02,7.02,0,3.88-3.14,7.02-7.02,7.02-3.88,0-7.02-3.14-7.02-7.02" fill="#ddc9a3"/><path d="M30.61,4.2c-1.65-5.59-9.58-5.59-11.23,0l-.29,1c-.43,1.45-1.94,2.27-3.39,1.85-.19-.05-.36-.13-.53-.22l-.91-.5c-5.13-2.79-10.73,2.82-7.94,7.94l.5.91c.72,1.32.23,2.98-1.09,3.7-.17.09-.35.17-.53.22l-1,.29c-5.59,1.65-5.59,9.58,0,11.23l1,.29c1.45.43,2.27,1.94,1.85,3.39-.05.19-.13.36-.22.53l-.5.91c-2.79,5.13,2.82,10.73,7.94,7.94l.91-.5c1.32-.72,2.98-.23,3.7,1.09.09.17.17.35.22.53l.29,1c1.65,5.59,9.58,5.59,11.23,0l.29-1c.43-1.45,1.94-2.27,3.39-1.85.19.05.36.13.53.22l.91.5c5.13,2.79,10.73-2.82,7.94-7.94l-.5-.91c-.72-1.32-.23-2.98,1.09-3.7.17-.09.35-.17.53-.22l1-.29c5.59-1.65,5.59-9.58,0-11.23l-1-.29c-1.45-.43-2.27-1.94-1.85-3.39.05-.19.13-.36.22-.53l.5-.91c2.79-5.13-2.82-10.73-7.94-7.94l-.91.5c-1.32.72-2.98.23-3.7-1.09-.09-.17-.17-.35-.22-.53l-.29-1ZM22.38,5.08c.77-2.61,4.46-2.61,5.23,0l.29,1c.91,3.1,4.17,4.87,7.27,3.96.4-.12.78-.28,1.15-.48l.91-.5c2.39-1.3,5,1.31,3.7,3.7l-.5.91c-1.55,2.84-.5,6.39,2.34,7.94.36.2.75.36,1.14.47l.99.29c2.61.77,2.61,4.46,0,5.23l-1,.29c-3.1.91-4.87,4.17-3.96,7.27.12.4.28.78.48,1.15l.5.91c1.3,2.39-1.31,5-3.7,3.7l-.91-.5c-2.84-1.55-6.39-.5-7.94,2.34-.2.36-.36.75-.48,1.15l-.29.99c-.77,2.61-4.46,2.61-5.23,0l-.29-1c-.91-3.1-4.17-4.87-7.27-3.96-.4.12-.78.28-1.14.47l-.91.5c-2.39,1.3-5-1.31-3.7-3.7l.5-.91c1.55-2.84.5-6.39-2.33-7.94-.37-.2-.75-.36-1.15-.48l-1-.29c-2.61-.77-2.61-4.46,0-5.23l1-.29c3.1-.92,4.87-4.17,3.96-7.27-.12-.39-.27-.78-.47-1.14l-.5-.91c-1.3-2.39,1.31-5,3.7-3.7l.91.5c2.84,1.55,6.39.5,7.94-2.34.2-.36.36-.75.47-1.14l.29-1Z" fill="#ddc9a3"/></svg>