<?xml version="1.0" encoding="UTF-8"?><svg id="Capa_1" xmlns="http://www.w3.org/2000/svg" width="50" height="50" viewBox="0 0 50 50"><path d="M38.19,47.38H11.87c-3.64,0-6.6-2.96-6.6-6.6v-11.84h-1.29C1.75,28.93,0,27.19,0,24.95c0-1.13.41-2.12,1.22-2.92l.07-.06L22.31,3.64c.93-.91,2-1.01,2.72-1.01.98,0,1.9.31,2.58.89l6.55,5.76v-.05c0-2.19,1.78-3.97,3.97-3.97h2.63c2.19,0,3.97,1.78,3.97,3.97v9.33s3.88,3.41,3.88,3.41c1.24,1.08,1.43,2.24,1.36,3.05-.03,2.17-1.8,3.92-3.97,3.92h-1.28s.05,11.81.05,11.81c0,1.77-.67,3.43-1.92,4.69-1.25,1.25-2.91,1.95-4.68,1.95ZM3.09,23.96c-.28.29-.4.59-.4.99,0,.74.55,1.29,1.29,1.29h3.98s0,14.53,0,14.53c0,2.16,1.76,3.91,3.91,3.91h26.32c1.05,0,2.04-.41,2.78-1.15.74-.74,1.14-1.73,1.14-2.78l-.06-14.51h3.98c.62,0,1.29-.52,1.29-1.29v-.16c.02-.1.05-.38-.44-.81l-4.8-4.21v-10.55c0-.71-.58-1.29-1.29-1.29h-2.63c-.71,0-1.29.58-1.29,1.29v5.98s-10.99-9.66-10.99-9.66c-.17-.14-.5-.24-.84-.24-.44,0-.66.07-.86.26l-.07.06L3.09,23.96ZM26.32,36.85h-2.63c-1.47,0-2.66-1.19-2.66-2.66v-2.6h-2.6c-1.47,0-2.66-1.19-2.66-2.66v-2.63c0-1.47,1.19-2.66,2.66-2.66h2.6v-2.6c0-1.47,1.19-2.66,2.66-2.66h2.63c1.47,0,2.66,1.19,2.66,2.66v2.6h2.6c1.47,0,2.66,1.19,2.66,2.66v2.63c0,1.47-1.19,2.66-2.66,2.66h-2.6v2.6c0,1.47-1.19,2.66-2.66,2.66ZM22.37,28.91h1.34s0,5.29,0,5.29l2.6-.03-.03-5.26h5.29s-.03-2.6-.03-2.6l-5.26.03v-5.29s-2.57.03-2.57.03v5.26s-5.29,0-5.29,0l.03,2.6,3.91-.03ZM23.69,21.08h0,0Z" fill="#ddc9a3"/></svg>