<?xml version="1.0" encoding="UTF-8"?><svg id="Capa_1" xmlns="http://www.w3.org/2000/svg" width="50" height="50" viewBox="0 0 50 50"><path d="M12.19,12.39v-5.69c0-1.31.82-2.49,2.05-2.96L23.7.2c.71-.27,1.5-.27,2.22,0l9.46,3.55c1.23.46,2.05,1.64,2.05,2.96v5.69s-.03,0-.03,0c.02.26.03.52.03.79v3.94c0,6.96-5.64,12.61-12.61,12.61-6.96,0-12.61-5.64-12.61-12.61v-3.94c0-.27,0-.53.03-.79h-.04ZM14.55,16.17c0,5.66,4.59,10.25,10.25,10.25,5.66,0,10.25-4.59,10.25-10.25v-2.05H14.55v2.05ZM23.23,4.51v1.58s-1.58,0-1.58,0c-.43,0-.79.35-.79.79v1.58c0,.43.35.79.79.79h1.58s0,1.58,0,1.58c0,.43.35.79.79.79h1.58c.43,0,.79-.35.79-.79v-1.58s1.58,0,1.58,0c.43,0,.79-.35.79-.79v-1.58c0-.43-.35-.79-.79-.79h-1.58s0-1.58,0-1.58c0-.43-.35-.79-.79-.79h-1.58c-.43,0-.79.35-.79.79Z" fill="#ddc9a3"/><path d="M42.23,50H7.77c-2.58,0-4.68-2.1-4.68-4.68,0-7.11,4.55-13.36,11.32-15.54h0c1.62-.53,3.4-.04,4.63,1.28l5.95,6.33,5.96-6.33c1.23-1.31,3.01-1.8,4.63-1.27,6.77,2.18,11.33,8.42,11.33,15.54,0,2.58-2.1,4.68-4.68,4.68ZM15.71,33.46s-.07,0-.11.02h0c-5.16,1.66-8.63,6.43-8.63,11.85,0,.43.36.8.8.8h34.47c.44,0,.8-.36.8-.8,0-5.42-3.47-10.19-8.64-11.85-.18-.06-.43.04-.61.24l-6.33,6.73c-.63.67-1.53,1.06-2.45,1.06s-1.82-.39-2.45-1.06l-6.33-6.73c-.15-.16-.34-.26-.5-.26Z" fill="#ddc9a3"/></svg>