<?xml version="1.0" encoding="UTF-8"?><svg id="Capa_1" xmlns="http://www.w3.org/2000/svg" width="50" height="50" viewBox="0 0 50 50"><path d="M24.98,50c-7.68,0-15.36,0-23.05,0-.23,0-.45.01-.68,0-.68-.06-1.17-.56-1.21-1.2-.04-.7.32-1.22,1.01-1.36.82-.17,1.65-.06,2.48-.07,1.48-.01,1.48,0,1.48-1.5V15.95q0-.84-.83-.84c-.91,0-1.81,0-2.72,0-.93,0-1.43-.51-1.44-1.44,0-1.59,0-3.17,0-4.76,0-.83.42-1.3,1.24-1.41.2-.03.41-.02.62-.02,3.36,0,6.72,0,10.08,0,.3,0,.6,0,.9.09.64.19.99.69.94,1.36-.04.6-.5,1.09-1.11,1.18-.2.03-.41.02-.62.02-2.93,0-5.85.01-8.78-.01-.53,0-.77.14-.7.7.04.32.04.65,0,.96-.07.57.19.69.71.69,3.23-.02,6.45,0,9.68,0,.25,0,.49,0,.73.04.73.13,1.2.72,1.14,1.39-.06.69-.58,1.2-1.33,1.22-1.49.02-2.98,0-4.47,0q-1.48,0-1.48,1.48v29.9c0,.84,0,.85.83.85,1.57,0,3.13-.01,4.7,0,.45,0,.63-.12.63-.61-.02-4.13-.01-8.27,0-12.4,0-.32-.09-.5-.41-.64-.66-.27-.92-.79-.83-1.44.08-.57.53-.98,1.21-1.08.2-.03.41-.03.62-.03,7.1,0,14.19,0,21.29,0,.26,0,.53,0,.79.06.62.13,1,.53,1.07,1.09.07.62-.18,1.15-.77,1.37-.41.15-.47.39-.47.77,0,4.08.01,8.16,0,12.23,0,.52.15.69.67.68,1.62-.03,3.25-.02,4.87,0,.46,0,.63-.14.63-.61-.01-10.34-.01-20.69,0-31.03,0-.49-.17-.61-.63-.6-1.75.02-3.51,0-5.27,0-.58,0-1.02-.25-1.28-.77-.22-.44-.15-.89.12-1.29.32-.46.8-.6,1.34-.6h4.93c1.72,0,3.43-.01,5.15,0,.46,0,.66-.13.62-.61-.03-.37-.03-.76,0-1.13.04-.49-.17-.6-.63-.6-2.93.01-5.85,0-8.78,0-.21,0-.42,0-.63-.01-.65-.07-1.13-.55-1.19-1.17-.06-.69.3-1.22.98-1.39.25-.06.52-.08.79-.08,3.41,0,6.83,0,10.25,0,1.34,0,1.77.44,1.77,1.75,0,1.47,0,2.95,0,4.42,0,.96-.5,1.46-1.47,1.46-.89,0-1.78,0-2.66,0q-.85,0-.85.87v18.01c0,4.21.01,8.42-.01,12.63,0,.58.17.76.74.74.92-.04,1.85-.03,2.77,0,.9.02,1.44.5,1.48,1.24.04.74-.46,1.32-1.19,1.39-.23.02-.45.01-.68.01-7.7,0-15.4,0-23.1,0M16.32,40.57c0,2.06.01,4.11,0,6.17,0,.47.16.62.62.62,2.06-.02,4.11-.02,6.17,0,.46,0,.62-.14.62-.61-.01-4.11-.01-8.22,0-12.33,0-.47-.16-.61-.62-.61-2.06.02-4.11.02-6.17,0-.52,0-.63.2-.62.67.02,2.04,0,4.08,0,6.11M33.68,40.56c0-2.04-.01-4.08,0-6.11,0-.48-.11-.67-.63-.66-2.06.03-4.11.02-6.17,0-.47,0-.61.15-.61.62.01,4.11.02,8.22,0,12.33,0,.49.18.61.63.61,2.06-.01,4.11-.02,6.17,0,.47,0,.62-.16.61-.62-.02-2.06,0-4.11,0-6.17" fill="#ddc9a3"/><path d="M33.76,8.8c0,4.9-3.91,8.8-8.81,8.8-4.81,0-8.72-3.94-8.72-8.78C16.24,3.96,20.16,0,24.99,0c4.83,0,8.77,3.95,8.78,8.8M24.96,14.95c2.85.12,6.17-2.15,6.19-6.1.01-3.72-2.9-6.17-6.11-6.19-3.42-.02-6.24,2.74-6.2,6.18.05,4,3.37,6.21,6.13,6.11" fill="#ddc9a3"/><path d="M21.3,23.8c0,1.19,0,2.38,0,3.57,0,.93-.5,1.44-1.43,1.45-2.39.01-4.79.01-7.18,0-.93,0-1.43-.51-1.43-1.44,0-2.4,0-4.79,0-7.19,0-.92.44-1.46,1.35-1.48,2.45-.04,4.9-.04,7.35,0,.9.01,1.35.56,1.35,1.47,0,1.21,0,2.42,0,3.62M13.83,23.74c0,.64.01,1.28,0,1.92,0,.37.14.5.5.5,1.3,0,2.6,0,3.9,0,.35,0,.51-.12.51-.49-.01-1.28-.01-2.56,0-3.84,0-.37-.14-.49-.5-.49-1.3.01-2.6.01-3.9,0-.41,0-.52.17-.51.55.02.62,0,1.24,0,1.86" fill="#ddc9a3"/><path d="M38.75,23.78c0,1.21,0,2.42,0,3.62,0,.89-.51,1.4-1.41,1.41-2.41,0-4.83,0-7.24,0-.9,0-1.39-.52-1.4-1.42,0-2.36,0-4.72,0-7.07,0-1.14.47-1.62,1.61-1.63,2.02-.01,4.04,0,6.05,0,.34,0,.68-.01,1.02.01.91.07,1.37.56,1.37,1.46,0,1.21,0,2.42,0,3.62M33.76,21.34c-.66,0-1.32.01-1.98,0-.35,0-.52.1-.51.48.01,1.28.01,2.56,0,3.84,0,.36.14.51.5.5,1.3-.01,2.6,0,3.9,0,.35,0,.52-.11.51-.49-.01-1.28-.01-2.56,0-3.84,0-.37-.13-.51-.5-.49-.64.01-1.28,0-1.92,0" fill="#ddc9a3"/><path d="M21.22,8.79c.03-1.45-.23-1.31,1.33-1.32,1.33-.01,1.14.12,1.16-1.14.02-1.5-.24-1.35,1.35-1.36,1.43,0,1.21-.08,1.23,1.2.02,1.47-.22,1.28,1.28,1.29,1.41.01,1.2-.07,1.21,1.22.01,1.43,0,1.43-1.43,1.44-1.19,0-1.05-.12-1.06,1.06q0,1.43-1.44,1.43c-1.3,0-1.13.11-1.14-1.16,0-1.33,0-1.32-1.3-1.33-1.39,0-1.17.15-1.19-1.33" fill="#ddc9a3"/></svg>