<?xml version="1.0" encoding="UTF-8"?>
<svg id="Capa_1" data-name="Capa 1" xmlns="http://www.w3.org/2000/svg" viewBox="0 0 50 50">
  <defs>
    <style>
      .cls-1 {
        fill: #dbc7a1;
        stroke-width: 0px;
      }
    </style>
  </defs>
  <path className="cls-1" d="M25.04.02c2.94,0,5.88-.05,8.81.02,2.84.07,5.63.39,8.27,1.62,3.98,1.85,6.27,5,7.23,9.19.47,2.03.65,4.1.64,6.18-.02,5.48.03,10.97-.04,16.45-.03,2.25-.17,4.51-.86,6.7-1.6,5.06-4.97,8.13-10.17,9.24-2.54.54-5.1.59-7.67.58-5.17,0-10.35.03-15.52-.05-3.05-.05-6.05-.51-8.79-2.03-3.46-1.92-5.42-4.9-6.31-8.67C.16,37.19,0,35.1,0,32.98c.01-5.85-.02-11.69.04-17.54.02-2.29.38-4.55,1.22-6.71C3,4.29,6.31,1.69,10.9.62,13.35.06,15.84,0,18.34,0c2.24,0,4.47,0,6.71,0v.02ZM45.24,23.71c-.15-2.77.37-6.96-.31-11.12-.55-3.41-2.3-5.9-5.67-7.08-1.99-.7-4.07-.83-6.14-.87-3.87-.09-7.74-.03-11.61-.02-3.04,0-6.08-.02-9.09.46-1.69.27-3.24.89-4.55,2.05-2.19,1.94-2.9,4.54-3.08,7.27-.2,3.16-.27,6.34-.17,9.5.09,2.91.04,5.82.09,8.72.03,1.64.04,3.27.33,4.89.61,3.43,2.4,5.88,5.77,6.99,1.43.47,2.94.65,4.44.74,3.89.22,7.79.15,11.69.16,3.4,0,6.8.03,10.18-.44,2.14-.3,4.06-1.07,5.58-2.67,1.92-2.02,2.41-4.58,2.5-7.19.12-3.32.03-6.65.03-11.38Z"/>
  <path className="cls-1" d="M24.98,37.95c-7.19,0-12.96-5.8-12.88-13.25.07-6.74,5.38-12.62,12.94-12.59,7.54.03,12.9,5.84,12.87,13.16-.02,6.58-5.37,12.51-12.93,12.68ZM33.23,25.08c0-4.57-3.69-8.28-8.27-8.3-4.4-.02-8.2,3.75-8.2,8.14,0,4.61,3.66,8.31,8.23,8.31,4.5,0,8.23-3.69,8.23-8.15Z"/>
  <path className="cls-1" d="M38.33,14.75c-1.75,0-3.05-1.29-3.06-3.04-.01-1.76,1.34-3.12,3.1-3.1,1.68.01,3.05,1.4,3.05,3.1,0,1.69-1.37,3.04-3.08,3.04Z"/>
</svg>