<?xml version="1.0" encoding="UTF-8"?>
<svg id="Capa_1" data-name="Capa 1" xmlns="http://www.w3.org/2000/svg" viewBox="0 0 132.13 132.13">
  <path d="M102.96,59.75c-.42-.72-.32-1.07.33-1.59,4.63-3.69,5.83-9.77,2.99-14.91-2.71-4.92-8.65-7.23-14.06-5.3-1.32.47-1.82.11-2.43-.97-3.06-5.42-6.17-10.81-9.32-16.18-2.03-3.46-5.08-5.27-7.83-5.34-8.02-.02-12.89,5.91-11.57,12.58.18.89.11,1.65-.25,2.47-1.19,2.68-2.51,5.29-4.04,7.79-2.57,4.18-5.49,8.05-8.66,11.67-4.5,5.14-9.54,9.79-14.98,14.08-.69.55-1.32,1-2.3.63-.63-.23-1.28.12-1.85.45-4.54,2.62-9.19,5.1-13.61,7.92-6.85,4.37-9.89,10.88-8.97,18.86,1.58,13.64,16.43,21.26,28.51,14.81,1.02-.55,1.49-.38,2.16.5,4.42,5.84,8.89,11.64,13.35,17.45,2.51,3.27,6.06,3.66,9.23.97,1.18-1,2.31-2.05,3.45-3.1,2.82-2.62,3.1-5.71.77-8.79-3.96-5.22-7.94-10.42-11.9-15.64-1.42-1.87-1.41-1.87.74-2.7,8.46-3.27,17.13-5.67,26.17-6.65,2.53-.27,5.06-.42,7.59-.45,2.82-.03,5.65.1,8.48.46.75.09,1.26.44,1.78.92,4.89,4.49,12.8,3.22,16.05-2.58,2.24-4.02,1.6-7.85-.67-11.66-3.11-5.2-6.07-10.49-9.13-15.72ZM94.29,42.68c4.07-1.26,8.27,1.92,8.27,6.29.07,1.82-.67,3.31-1.85,4.62-.52.58-.91.69-1.36-.12-1.82-3.22-3.68-6.41-5.55-9.6-.41-.69-.25-.97.5-1.2ZM32.36,102.24c-2.11,1.17-4.22,1.62-6.56,1.62-7.46,0-13.5-5.38-14.24-12.88-.55-5.61,1.56-10.18,6.25-13.29,3.56-2.35,7.36-4.33,11.04-6.5.62-.37.9-.21,1.23.37,4.44,7.72,8.9,15.43,13.38,23.13.41.7.28,1.06-.4,1.44-3.58,2.02-7.11,4.12-10.7,6.11ZM59.83,117.03c.17.22.27.49.38.68-.04.48-.32.73-.59.98-1.02.94-2.04,1.87-3.07,2.79-1.06.95-1.35.93-2.23-.22-3.49-4.55-6.97-9.11-10.46-13.66-.84-1.1-1.67-2.21-2.53-3.29-.44-.56-.52-.94.2-1.34,1.5-.82,2.97-1.69,4.44-2.56.61-.36,1.03-.26,1.45.3,4.13,5.44,8.27,10.88,12.41,16.32ZM92.07,83.14c-.21.32-.6.05-.91.05-1.18,0-2.36,0-3.54,0-2.04-.02-4.07.07-6.09.21-8.98.6-17.71,2.61-26.27,5.58-2.19.76-4.35,1.59-6.5,2.47-.77.31-1.14.17-1.54-.53-3.97-6.91-7.96-13.81-11.97-20.69-.45-.77-.18-1.13.42-1.58,5.15-3.94,9.93-8.29,14.35-13.03.6-.64,1.19-1.3,1.77-1.95,4.72-5.32,8.83-11.07,12.08-17.44.16-.3.19-.82.63-.8.4.02.48.5.66.81,8.87,15.35,17.74,30.7,26.61,46.05.16.27.5.56.29.87ZM108.93,81.74c0,2.63-1.41,4.56-3.68,5.25-2.32.71-4.74-.11-6.03-2.27-2.65-4.43-5.2-8.92-7.79-13.39-8.18-14.15-16.36-28.3-24.51-42.46-2.11-3.66-.28-7.57,3.79-8.23,1.95-.32,4.09.73,5.22,2.67,3.56,6.11,7.1,12.24,10.63,18.37,7.12,12.32,14.23,24.64,21.36,36.96.6,1.04,1.11,2.08,1.01,3.1Z" fill="#fff"/>
  <path d="M128.57,54.07c-1.83-.03-3.66,0-5.48,0h0c-1.99,0-3.98-.03-5.97.02-1.45.04-2.47.99-2.6,2.27-.13,1.25.55,2.35,1.76,2.73.42.13.88.2,1.32.2,3.66.02,7.31.03,10.97,0,1.88-.01,2.98-1.05,2.95-2.67-.02-1.55-1.11-2.52-2.94-2.55Z" fill="#fff"/>
  <path d="M99.08,29.39c1.07.39,2.35,0,2.98-1.06,2.04-3.46,4.03-6.96,6.02-10.45.32-.57.47-1.21.25-1.88-.34-1.07-1.03-1.77-2.14-1.92-1.22-.16-2.11.43-2.71,1.47-1.91,3.31-3.82,6.61-5.73,9.92-.27.47-.41.97-.4,1.78.05.91.61,1.73,1.72,2.14Z" fill="#fff"/>
  <path d="M109.77,42.35c.99.65,2,.55,2.99-.02,2.56-1.48,5.13-2.96,7.69-4.45.77-.45,1.57-.87,2.25-1.44.86-.71,1.11-1.69.69-2.75-.41-1.04-1.19-1.62-2.49-1.63-.39-.03-.89.12-1.36.39-3.2,1.84-6.4,3.69-9.59,5.54-.74.43-1.2,1.08-1.29,1.95-.1,1.01.26,1.85,1.11,2.41Z" fill="#fff"/>
</svg>