<?xml version="1.0" encoding="UTF-8"?>
<svg id="Capa_1" data-name="Capa 1" xmlns="http://www.w3.org/2000/svg" viewBox="0 0 50 50">
  <defs>
    <style>
      .cls-1 {
        fill: #e0c79f;
      }

      .cls-1, .cls-2 {
        stroke-width: 0px;
      }

      .cls-2 {
        fill: #c19352;
      }
    </style>
  </defs>
  <path class="cls-2" d="M42.5,11.15h0c0-1.55-1.25-2.8-2.8-2.8H15.99l3.03,5.6h20.67c1.55,0,2.8-1.25,2.8-2.8Z"/>
  <path class="cls-1" d="M10.3,8.35c-1.55,0-2.8,1.25-2.8,2.8h0c0,1.55,1.25,2.8,2.8,2.8h8.72l-3.03-5.6h-5.69Z"/>
  <path class="cls-2" d="M42.5,25.01c0-1.55-1.25-2.8-2.8-2.8h-16.21l3.03,5.6h13.18c1.55,0,2.8-1.25,2.8-2.8Z"/>
  <path class="cls-1" d="M10.3,22.21c-1.55,0-2.8,1.25-2.8,2.8s1.25,2.8,2.8,2.8h16.21l-3.03-5.6h-13.18Z"/>
  <path class="cls-2" d="M42.5,38.74h0c0-1.55-1.25-2.8-2.8-2.8h-8.79l3.03,5.6h5.76c1.55,0,2.8-1.25,2.8-2.8Z"/>
  <path class="cls-1" d="M10.3,35.94c-1.55,0-2.8,1.25-2.8,2.8h0c0,1.55,1.25,2.8,2.8,2.8h23.64l-3.03-5.6H10.3Z"/>
</svg>