<?xml version="1.0" encoding="UTF-8"?>
<svg id="Capa_1" data-name="Capa 1" xmlns="http://www.w3.org/2000/svg" viewBox="0 0 50 50">
  <defs>
    <style>
      .cls-1 {
        fill: #ba945c;
        stroke-width: 0px;
      }
    </style>
  </defs>
  <path class="cls-1" d="M24.98,49.97c-5.5,0-11.01-.09-16.51.03C3.97,50.1-.13,46.01,0,41.46c.12-4.04,1.1-7.79,3.04-11.32,1.23-2.23,2.39-4.5,3.61-6.73.31-.57-.05-.6-.42-.68-1.85-.4-3.34-1.36-4.53-2.83C.18,18.01-.19,15.84.13,13.51c.56-4.07,3.09-6.77,6.38-8.86C10.73,1.97,15.43.8,20.34.26,24.89-.24,29.41-.03,33.88.9c4.08.85,7.95,2.27,11.26,4.89,3.06,2.43,4.97,5.48,4.84,9.55-.11,3.46-2.58,6.52-5.94,7.32-.94.22-.92.21-.49,1.05,1.57,3.08,3.42,6.02,4.76,9.21,1.3,3.08,1.88,6.32,1.65,9.67-.26,3.8-4.01,7.33-7.83,7.36-5.71.04-11.42,0-17.14,0h0ZM24.97,45.67c5.48,0,10.96.01,16.43,0,2.45,0,4.23-1.67,4.26-4.03.02-1.72-.22-3.42-.69-5.08-.69-2.42-1.92-4.6-3.1-6.79-2.06-3.85-4.01-7.76-6.33-11.46-.5-.8-1.14-1.39-2.01-1.77-5.32-2.32-10.68-2.5-16.13-.4-1.52.58-2.57,1.52-3.39,2.9-2.31,3.86-4.3,7.89-6.46,11.83-1.65,3.01-2.92,6.11-3.19,9.6-.25,3.19,1.39,5.2,4.57,5.2,5.35,0,10.7,0,16.04,0ZM25.01,4.22c-2.13-.03-4.25.16-6.35.52-4.25.73-8.25,2.03-11.63,4.87-1.21,1.02-2.04,2.27-2.47,3.79-.84,3,.75,5.21,3.76,5.29.66.02,1.04-.21,1.36-.78.62-1.11,1.26-2.21,2.09-3.18,1.32-1.54,3.13-2.29,4.96-2.94,5.21-1.84,10.46-1.95,15.73-.27,2.1.67,4.19,1.44,5.72,3.16.9,1.01,1.53,2.22,2.24,3.37.15.24.26.51.57.6,1.1.35,3.14-.35,3.88-1.33,1.24-1.66.9-3.41.14-5.09-1.06-2.36-3.16-3.69-5.33-4.82-4.59-2.39-9.57-3.13-14.68-3.18Z"/>
  <path class="cls-1" d="M25.01,41.69c-5.75,0-10.47-4.7-10.48-10.46-.01-5.79,4.72-10.53,10.5-10.51,5.75.01,10.45,4.74,10.44,10.5,0,5.75-4.72,10.47-10.46,10.47ZM31.15,31.18c-.04-3.37-2.88-6.19-6.18-6.12-3.36.07-6.07,2.79-6.09,6.13-.02,3.33,2.81,6.17,6.15,6.16,3.35,0,6.17-2.85,6.13-6.17Z"/>
</svg>