<?xml version="1.0" encoding="UTF-8"?>
<svg id="Capa_1" data-name="Capa 1" xmlns="http://www.w3.org/2000/svg" viewBox="0 0 50 50">
  <defs>
    <style>
      .cls-1 {
        fill: #dbc7a1;
        stroke-width: 0px;
      }
    </style>
  </defs>
  <path class="cls-1" d="M34.99,26.41c-.07,2.33.1,5.39-.09,8.45-.22,3.56-1.37,6.73-3.72,9.44-3.77,4.35-8.6,6.28-14.24,5.54-5.29-.69-9.38-3.56-11.85-8.37-2.8-5.44-2.63-10.9.74-16.04,2.68-4.08,6.55-6.48,11.47-7.06,1.06-.12,2.11-.13,3.18,0,.57.07.85.26.84.86-.01,2.41-.02,4.83,0,7.24,0,.72-.34.8-.94.69-3.72-.64-6.86,1.2-8.08,4.72-.9,2.61-.08,5.65,2.11,7.57,2.24,1.96,4.81,2.26,7.48,1.1,2.82-1.23,4.2-3.5,4.23-6.58.04-4.04.14-8.09.05-12.13-.08-3.42.06-6.84.01-10.26-.05-3.57,0-7.16.03-10.74,0-.65.26-.85.88-.85,2.31.02,4.62.03,6.93,0,.66,0,.93.23.98.88.35,4.64,2.81,7.86,6.85,9.95,1.08.56,2.28.84,3.52.89,1.39.06,1.49.18,1.49,1.55,0,2.05,0,4.1,0,6.15,0,1.13-.1,1.28-1.26,1.19-3.49-.25-6.78-1.17-9.75-3.1-.25-.16-.5-.53-.8-.34-.31.19-.05.57-.05.87-.01,2.54,0,5.09,0,8.36Z"/>
</svg>