<?xml version="1.0" encoding="UTF-8"?>
<svg id="Capa_2" data-name="Capa 2" xmlns="http://www.w3.org/2000/svg" viewBox="0 0 50 50">
  <defs>
    <style>
      .cls-1 {
        fill: #bb965c;
        stroke-width: 0px;
      }
    </style>
  </defs>
  <path class="cls-1" d="m24.94,49.95c-6.14,0-12.28,0-18.43,0-2.31,0-3.42-1.15-3.39-3.46.1-8.43,6.72-15.87,15.19-16.73,5.11-.52,10.29-.79,15.36.4,7.41,1.74,12.62,8.08,13.19,15.65.18,2.46-.91,4.25-3.86,4.18-6.02-.14-12.03-.04-18.05-.04m.05-4.84c5.19,0,10.38-.02,15.56.01,1.04,0,1.28-.32,1.04-1.34-1.3-5.33-6.2-9.27-11.68-9.29-3.24-.01-6.48-.01-9.71,0-5.38.02-10.28,3.76-11.74,8.94-.43,1.52-.32,1.68,1.22,1.68,5.1,0,10.21,0,15.32,0"/>
  <path class="cls-1" d="m24.93,25.04c-6.91,0-12.51-5.6-12.52-12.5C12.39,5.63,18.07,0,25.04,0c6.89,0,12.51,5.63,12.51,12.53,0,6.96-5.61,12.52-12.63,12.51m7.67-12.42c.03-4.34-3.28-7.73-7.57-7.75-4.28-.01-7.6,3.25-7.64,7.53-.05,4.38,3.2,7.77,7.49,7.8,4.33.03,7.69-3.27,7.72-7.58"/>
</svg>