<?xml version="1.0" encoding="UTF-8"?>
<svg id="Capa_1" data-name="Capa 1" xmlns="http://www.w3.org/2000/svg" viewBox="0 0 50 50">
  <defs>
    <style>
      .cls-1 {
        fill: #ba945c;
        stroke-width: 0px;
      }
    </style>
  </defs>
  <path className="cls-1" d="M26.84,0c10.67-.13,21.42,9.39,22.94,21.57.96,7.69-1.2,14.44-6.46,20.13-4.49,4.86-10.1,7.53-16.76,7.95-4.38.28-8.53-.55-12.46-2.47-.71-.34-1.35-.4-2.1-.2-3.68.99-7.38,1.94-11.07,2.9-.97.25-1.07.15-.8-.85,1-3.64,1.99-7.28,3.02-10.91.17-.59.12-1.07-.17-1.62C-2.33,26.34-.33,14.42,8.09,6.62,12.84,2.22,18.53,0,26.84,0ZM45.62,24.69c.06-.87-.05-1.93-.22-2.99-1.8-11.11-11.97-18.66-23.15-17.19C12.21,5.83,4.44,14.61,4.42,24.68c0,4,1.04,7.72,3.19,11.1.35.55.42,1.06.24,1.69-.55,1.9-1.07,3.81-1.58,5.72-.19.71-.09.8.62.62,1.95-.5,3.9-.99,5.84-1.53.68-.19,1.22-.14,1.85.22,4.19,2.44,8.71,3.31,13.51,2.63,9.98-1.41,17.53-10.15,17.52-20.45Z"/>
  <path className="cls-1" d="M12.35,19.23c-.21-2.02.8-3.6,2.1-5.06.95-1.06,2.37-.99,3.58-.73.45.1.65.5.82.89.67,1.58,1.32,3.17,1.99,4.76.24.57.11,1.09-.21,1.55-.4.58-.83,1.14-1.31,1.65-.41.45-.49.85-.17,1.39,1.97,3.36,4.78,5.74,8.41,7.17.52.21.95.11,1.31-.36.53-.68,1.12-1.31,1.63-2,.47-.65,1.02-.83,1.76-.52,1.67.69,3.25,1.55,4.87,2.34.32.16.55.4.56.79.06,1.72-.31,3.23-1.83,4.31-2.29,1.64-4.73,1.68-7.32.89-6.48-1.97-11.01-6.29-14.52-11.85-1-1.59-1.81-3.23-1.67-5.24Z"/>
</svg>