<?xml version="1.0" encoding="UTF-8"?>
<svg id="Capa_1" data-name="Capa 1" xmlns="http://www.w3.org/2000/svg" viewBox="0 0 50 50">
  <defs>
    <style>
      .cls-1 {
        fill: #dbc7a1;
        stroke-width: 0px;
      }
    </style>
  </defs>
  <g id="XgZroX.tif">
    <path class="cls-1" d="M7.9,2.1c2.25,0,4.5.03,6.75-.02.79-.02,1.3.26,1.76.88,3.18,4.22,6.39,8.42,9.59,12.62.74.98.77.99,1.6.03,3.75-4.28,7.51-8.56,11.24-12.86.4-.46.82-.68,1.43-.67,1.99.03,3.97,0,5.96.02.27,0,.64-.12.77.23.1.28-.19.47-.36.66-3.27,3.73-6.55,7.46-9.82,11.19-1.89,2.15-3.77,4.31-5.69,6.43-.53.59-.51,1-.04,1.63,6.08,8.03,12.13,16.08,18.18,24.13.29.38.88.78.67,1.24-.25.54-.95.27-1.45.27-4.21.02-8.41-.01-12.62.03-.88,0-1.47-.28-2-.98-3.55-4.71-7.14-9.39-10.71-14.08-.7-.91-.71-.91-1.45-.06-4.2,4.82-8.41,9.63-12.6,14.46-.37.43-.78.66-1.36.65-1.99-.02-3.97,0-5.96,0-.29,0-.65.06-.78-.25-.12-.31.18-.53.37-.74,5.55-6.32,11.09-12.64,16.66-18.93.52-.59.56-1.01.07-1.66C12.26,18.67,6.42,11.01.57,3.35c-.24-.31-.71-.63-.53-1.03.19-.44.73-.21,1.12-.21,2.25-.02,4.5,0,6.75,0ZM11.55,6.59c-.76,0-1.29,0-1.82,0-.46,0-.6.19-.33.59.11.17.24.33.37.49,8.48,11.08,16.99,22.14,25.4,33.28,1.14,1.52,2.29,2.36,4.18,2.02.39-.07.94.19,1.15-.19.24-.45-.3-.76-.55-1.09C31.48,30.53,23,19.37,14.56,8.18c-.87-1.15-1.71-1.98-3.01-1.6Z"/>
  </g>
</svg>