<?xml version="1.0" encoding="UTF-8"?>
<svg id="Capa_1" data-name="Capa 1" xmlns="http://www.w3.org/2000/svg" viewBox="0 0 50 50">
  <defs>
    <style>
      .cls-1 {
        fill: #dbc7a1;
        stroke-width: 0px;
      }
    </style>
  </defs>
  <path class="cls-1" d="M25.79,42.64c-3.76.03-7.53.02-11.29-.18-2.74-.15-5.49-.18-8.21-.7-2.78-.53-4.54-2.13-5.32-4.83-.51-1.76-.59-3.57-.76-5.38C-.1,28.11,0,24.66.07,21.21c.05-2.67.32-5.32.87-7.95.54-2.56,2.8-4.68,5.31-5.02,2.96-.4,5.94-.56,8.91-.7,5.32-.25,10.64-.23,15.96-.11,4.27.1,8.56.16,12.8.86,2.51.41,4.6,2.36,5.14,4.9.86,4.03.95,8.13.95,12.23,0,3.79-.2,7.56-.92,11.3-.48,2.47-2.63,4.58-5.12,5.04-2.77.5-5.57.53-8.36.73-3.27.24-6.54.12-9.81.17ZM20.03,24.97c0,2.08,0,4.15,0,6.23,0,.84.16.93.91.51,3.61-2.04,7.23-4.09,10.83-6.15.85-.48.85-.62,0-1.1-3.61-2.06-7.22-4.1-10.83-6.15-.75-.42-.9-.33-.91.51-.01,2.05,0,4.1,0,6.15Z"/>
</svg>