<svg xmlns="http://www.w3.org/2000/svg" version="1.1" xmlns:xlink="http://www.w3.org/1999/xlink" xmlns:svgjs="http://svgjs.dev/svgjs" width="96" height="96"><svg id="SvgjsSvg1001" xmlns="http://www.w3.org/2000/svg" viewBox="0 0 96 96">
  <defs>
    <style>
      .cls-1 {
        fill: #fff;
      }

      .cls-1, .cls-2 {
        fill-rule: evenodd;
      }

      .cls-3, .cls-2 {
        fill: #026353;
      }
    </style>
  </defs>
  <g>
    <path class="cls-1" d="M59.81,49.4c.61-5.95-.63-9.8-2.23-13.35-2.82-5.66-6.38-8.59.05-15.48-9.38,6.68-8.51,7-6.06,10.49,2.46,3.11,7.09,10.09,8.24,18.34"></path>
    <path class="cls-1" d="M22,29.55c.93-.63,1.86-.99,2.36-.99.53.24.97.8,1.49,1.08.15.09.29.18.47.18.52-.18,1.66-1.13,2.39-1.75.19-.16.19-.19-.04-.22-.73-.08-2.37-.04-3.64,0-.08-.07-.1-.17-.02-.27,3.78-3.08,9.72-1.11,16.1-2.51.74.54-1.99,2.49-4.89,4.39,1.64-.44,3.4-1.11,5.2-1.96,2.12-1.11,4.69-2.78,7.44-4.63,6.39-4.55,10.86-9,14.52-10.92,2.82-1.16,4.88-1.05,6.81.41,3.96,3.01,2.89,11.77,2.5,15.79-.77,8.34-3.06,18.57-7.12,26.5-2.06,4.39-7.22,6.12-11.05,6.19,3.71-4.86,4.16-10.07,2.31-14.7-2.37-6.6-9.61-12-18.45-13.37-5.06-.81-10.15-1-14.13-.9-.56.07-1.62.1-1.72,1.04-.59-.77-.91-1.48-1.05-2.01-.13-.53.07-1,.52-1.36M23.01,16.61c.45-2.49,1.39-3.72,2.66-4.42,3.46-1.61,5.35-.26,8.15,1.71,4.24,2.89,9.6,7.31,10.93,9.03-14.15,1.72-17.47-.73-21.71,3.68-.44-4.64-.42-7.81-.03-10.01M47.16,61.33c-2.83.26-5.41.19-7.59-.14-2.82-.22-5.22-1.71-7.21-3.93-1.43-1.95-2.67-4.26-3.72-6.7-2.61-6.83-4.26-13.17-4.72-16.3-.16,0,2.76-.33,5.97-.1,4.52.1,10.8.39,8.36,5.29,6.84-3.75,12.4,1.36,14.26,3.63.66.56,2.49,3.94,2.75,7.7-.06,5.24-1.97,9.71-8.1,10.55M24.08,62.45c7.7,2.06,31.56.98,43.19.35,2.71-.28,6.22-.28,8.37-3.35.79-.95,1.18-2.05,1.74-4.83.59-5.72.9-11.93.78-19.04-.18-6.77-.35-14.59-1.38-20.15-1.07-5.18-4.43-6.57-10.26-6.96-15.67-.85-23.23-.65-37.2-.06-8.72.7-11.42,2.72-11.94,13.08-.7,10.91-.53,22.05.56,32.33.55,6.96,3.73,8.11,6.15,8.61"></path>
    <path class="cls-1" d="M47.97,41.69c-2.41-2.09-5.96-3.18-8.29-1.51-1.25,1.23-1.41,2.36-.81,4.36.19.6.36,1.25.37,1.88.06,1.76-1.43,2.83-2.34,5.64.83-.91,3-1.48,3.99.37.41-.06,1.07.07,1.12,1.01.58-1.89-1.86-1.18-.72-3.32-1.37,1.05-1.45-.24-2.8.3-.1-.36.27-1.09.66-1.57,2.39-3.35,5.2-.94,6.7-3.62-3.83,2.61-7.82-2.32-5.87-4.12,1.35-1.32,3.98-.54,5.37.25.77.33,2.85,1.99,3.9,4.48.51,1.3,1.04,5.83-1.16,7.95-1.2,1.05-1.98,1.38-3.59.94-4.44-1.26-4.05,2.5-7.29.22-.25.88.43,1.78,1.55,2.18,1.3.23,2.23-.53,2.81-.66.62-.27.86.12.09.63-.29.23-.39.51.18.51.15.1.64.04,1.17-.03.55-.11,1.1-.2,1.4-.18.37.02.58.28-.13.7-.3.19-1.19.59-2.06.64.61.27,2.06.47,3.57.34,4.27-.5,5.95-5.18,6.05-8.92,0-3.33-1.32-6.22-3.86-8.47"></path>
    <path class="cls-1" d="M15.58,66.1v21.81c.87-.14,1.69-.21,2.48-.21.89,0,1.81.07,2.74.21v-21.81c-.57.05-1.44.11-2.61.2-1.16-.09-2.02-.15-2.6-.2"></path>
    <path class="cls-1" d="M51.29,86.44s-.49-3.02-.68-4.38c-.29-1.79-.54-3.55-.78-5.29-.24-1.74-.45-3.37-.64-4.86-.19-1.51-.45-3.44-.72-5.81-.6.09-1.07.13-1.45.2-.77-.1-1.27-.16-1.51-.2-.65,1.24-1.36,2.57-2.14,4.02-.78,1.45-1.46,2.65-2.01,3.64-.55.99-1.19,2.13-1.92,3.4-.74,1.28-1.48,2.57-2.21,3.87-3.62-6.43-6.31-11.4-8.11-14.93-.27.04-.75.1-1.46.2-.14-.02-.38-.04-.67-.09-.28-.05-.55-.07-.76-.11-.53,3.66-1.12,7.41-1.77,11.24-.64,3.82-1.27,7.35-1.9,10.57.33-.04.89-.1,1.66-.21.36.05.63.08.83.09.21.04.49.07.83.11.03-1.12.1-2.48.24-4.13.15-1.63.34-3.41.57-5.34.24-1.93.47-3.6.7-5.02.4.74.97,1.8,1.71,3.16.75,1.38,1.35,2.51,1.84,3.39.48.88,1.18,2.18,2.11,3.91.92,1.71,1.61,2.99,2.05,3.84h1.31c2.36-4.59,4.98-9.46,7.83-14.6.13,1.19.3,2.61.5,4.27.2,1.64.35,2.9.45,3.77.11.87.2,1.91.32,3.15.1,1.23.18,2.43.24,3.62.97-.14,1.93-.21,2.89-.21s1.95.07,2.89.21c-.04-.3-.14-.88-.14-.88,0,0-.08-.42-.1-.59"></path>
    <path class="cls-1" d="M66.02,82.89c.12-.44.2-.92.22-1.42,0-1.28-.37-2.48-1.07-3.58-.7-1.11-2.04-2.07-3.98-2.91l-2.61-1.17c-2.07-.91-3.1-1.95-3.1-3.16,0-2.11,1.31-3.16,3.91-3.16,1.04,0,1.92.25,2.59.79.68.52,1.17,1.18,1.44,1.93h.51c.18-.53.37-1.06.57-1.59.19-.56.39-1.06.56-1.55-.57-.45-1.38-.8-2.41-1.07-1.02-.27-2.04-.43-3.06-.43-1.82,0-3.37.32-4.61.94-1.24.6-2.16,1.42-2.75,2.43-.59,1.02-.88,2.14-.88,3.33s.23,2.11.68,2.92c.46.82,1.09,1.51,1.93,2.07.85.58,1.93,1.11,3.24,1.63,1.69.63,2.89,1.28,3.58,1.92.7.64,1.05,1.41,1.05,2.29,0,.97-.4,1.75-1.18,2.36-.77.6-1.73.9-2.88.9-1.41-.04-2.5-.37-3.3-.99-.8-.63-1.32-1.45-1.6-2.47h-.71c-.17,1.14-.48,2.32-.89,3.55.03.19.06.38.1.59,1.5.77,3.3,1.2,5.4,1.25,1.17,0,2.29-.14,3.41-.43,1.13-.29,2.13-.72,3.03-1.31.93-.58,1.64-1.3,2.17-2.15.02-.03.03-.07.05-.11.14-.27.35-.67.42-.9l.15-.49Z"></path>
    <path class="cls-1" d="M78.73,77.88c-.71-1.11-2.04-2.07-3.99-2.91l-2.61-1.17c-2.07-.91-3.09-1.95-3.09-3.16,0-2.11,1.3-3.16,3.91-3.16,1.03,0,1.9.25,2.59.79.69.52,1.16,1.18,1.43,1.93h.53c.18-.53.36-1.06.57-1.6.21-.55.39-1.05.56-1.55-.59-.45-1.39-.8-2.41-1.07-1.02-.27-2.04-.43-3.06-.43-1.83,0-3.38.32-4.62.94-1.24.6-2.15,1.42-2.74,2.43-.59,1.01-.88,2.14-.88,3.33s.22,2.11.67,2.92c.45.82,1.1,1.51,1.94,2.07.85.58,1.92,1.11,3.23,1.63,1.71.63,2.89,1.28,3.6,1.92.69.64,1.03,1.41,1.03,2.29,0,.98-.38,1.75-1.17,2.36-.76.6-1.73.9-2.88.9-1.4-.04-2.49-.36-3.29-.99-.8-.64-1.34-1.45-1.6-2.47h-.42c-.13.49-.32.96-.57,1.39-.2.86-.43,1.74-.74,2.64,1.56.85,3.43,1.3,5.63,1.36,1.17,0,2.3-.14,3.42-.43,1.13-.29,2.13-.72,3.04-1.31.9-.58,1.62-1.3,2.15-2.15.53-.85.8-1.82.84-2.92,0-1.28-.36-2.48-1.06-3.58"></path>
  </g>
  <g>
    <path class="cls-1" d="M48,94.5C22.36,94.5,1.5,73.64,1.5,48S22.36,1.5,48,1.5s46.5,20.86,46.5,46.5-20.86,46.5-46.5,46.5Z"></path>
    <path class="cls-3" d="M48,3c24.81,0,45,20.19,45,45s-20.19,45-45,45S3,72.81,3,48,23.19,3,48,3M48,0h0C21.49,0,0,21.49,0,48H0C0,74.51,21.49,96,48,96h0c26.51,0,48-21.49,48-48h0C96,21.49,74.51,0,48,0h0Z"></path>
  </g>
  <g>
    <path class="cls-2" d="M60.99,62.45c.65-6.32-.67-10.4-2.37-14.18-2.99-6.01-6.78-9.12.06-16.44-9.96,7.09-9.03,7.43-6.44,11.14,2.61,3.3,7.53,10.72,8.75,19.48"></path>
    <path class="cls-2" d="M20.85,41.38c.99-.67,1.98-1.05,2.5-1.05.56.26,1.03.85,1.59,1.15.16.1.31.19.5.19.56-.19,1.76-1.2,2.54-1.85.2-.17.2-.2-.05-.24-.77-.08-2.51-.05-3.86,0-.09-.08-.11-.18-.02-.28,4.01-3.27,10.32-1.18,17.09-2.66.78.57-2.11,2.64-5.19,4.66,1.74-.46,3.6-1.18,5.53-2.08,2.25-1.18,4.98-2.95,7.9-4.92,6.79-4.83,11.53-9.55,15.41-11.59,3-1.23,5.18-1.11,7.23.43,4.21,3.19,3.07,12.49,2.65,16.77-.82,8.86-3.25,19.71-7.55,28.13-2.19,4.66-7.67,6.5-11.73,6.57,3.94-5.16,4.42-10.69,2.45-15.6-2.52-7.01-10.2-12.74-19.59-14.19-5.37-.86-10.78-1.06-15-.95-.6.07-1.72.11-1.83,1.1-.62-.82-.96-1.57-1.12-2.13-.14-.57.07-1.07.55-1.44M21.93,27.64c.47-2.64,1.48-3.95,2.83-4.69,3.67-1.71,5.68-.28,8.65,1.82,4.5,3.07,10.2,7.76,11.6,9.59-15.03,1.83-18.54-.78-23.05,3.91-.47-4.92-.44-8.29-.03-10.62M47.56,75.12c-3.01.27-5.74.2-8.06-.15-2.99-.23-5.55-1.82-7.65-4.17-1.52-2.07-2.83-4.52-3.95-7.11-2.77-7.25-4.52-13.98-5.02-17.31-.17,0,2.93-.35,6.34-.11,4.8.11,11.46.42,8.87,5.61,7.26-3.98,13.16,1.44,15.14,3.86.7.59,2.65,4.18,2.92,8.18-.07,5.57-2.1,10.3-8.6,11.2M23.06,76.31c8.17,2.19,33.51,1.04,45.85.37,2.88-.3,6.6-.3,8.89-3.55.84-1.01,1.26-2.18,1.85-5.12.62-6.08.95-12.66.83-20.21-.19-7.19-.37-15.49-1.46-21.39-1.14-5.5-4.71-6.97-10.89-7.39-16.64-.9-24.66-.69-39.5-.06-9.26.74-12.13,2.89-12.68,13.89-.74,11.58-.56,23.41.59,34.33.59,7.39,3.96,8.61,6.53,9.14"></path>
    <path class="cls-2" d="M48.42,54.27c-2.56-2.22-6.33-3.38-8.8-1.6-1.33,1.3-1.5,2.51-.86,4.62.2.63.38,1.32.4,2,.07,1.87-1.52,3.01-2.49,5.99.88-.97,3.19-1.57,4.23.39.43-.06,1.14.08,1.19,1.07.62-2.01-1.98-1.25-.77-3.52-1.45,1.12-1.54-.26-2.97.32-.1-.39.28-1.16.7-1.67,2.54-3.56,5.52-1,7.11-3.85-4.07,2.77-8.3-2.46-6.23-4.37,1.43-1.4,4.22-.57,5.7.27.82.35,3.02,2.12,4.14,4.75.54,1.38,1.1,6.19-1.23,8.44-1.27,1.11-2.1,1.46-3.81,1-4.72-1.34-4.3,2.65-7.74.24-.27.93.45,1.89,1.64,2.31,1.38.25,2.37-.56,2.98-.7.66-.29.92.13.09.67-.31.24-.41.54.19.54.15.1.68.04,1.24-.03.59-.11,1.17-.22,1.49-.19.39.03.61.29-.13.74-.32.2-1.26.63-2.19.68.65.29,2.19.5,3.79.37,4.54-.53,6.32-5.5,6.42-9.47,0-3.54-1.4-6.6-4.1-8.99"></path>
  </g>
</svg><style>@media (prefers-color-scheme: light) { :root { filter: none; } }
@media (prefers-color-scheme: dark) { :root { filter: none; } }
</style></svg>